<svg width="1254" height="1251" viewBox="0 0 1254 1251" version="1.1" xmlns="http://www.w3.org/2000/svg" xmlns:xlink="http://www.w3.org/1999/xlink" xmlns:figma="http://www.figma.com/figma/ns">
<title>Karat SVG</title>
<desc>Created using Figma</desc>
<g id="Canvas" transform="matrix(3 0 0 3 219 969)" figma:type="canvas">
<g id="Rectangle" style="mix-blend-mode:normal;" figma:type="rounded-rectangle">
<mask id="mask0_outline_ins">
<use xlink:href="#path0_fill" fill="white" transform="matrix(0.707107 -0.707107 0.706771 0.707442 -72.4972 -114.479)"/>
</mask>
<g mask="url(#mask0_outline_ins)">
<use xlink:href="#path1_stroke_2x" transform="matrix(0.707107 -0.707107 0.706771 0.707442 -72.4972 -114.479)" fill="#DFBE6A" style="mix-blend-mode:normal;"/>
</g>
</g>
<g id="Polygon" style="mix-blend-mode:normal;" figma:type="regular-polygon">
<mask id="mask1_outline_ins">
<use xlink:href="#path2_fill" fill="white" transform="matrix(0.706939 -0.707274 0.706939 0.707274 -116 -177.5)"/>
</mask>
<g mask="url(#mask1_outline_ins)">
<use xlink:href="#path3_stroke_2x" transform="matrix(0.706939 -0.707274 0.706939 0.707274 -116 -177.5)" fill="#DFBE6A" style="mix-blend-mode:normal;"/>
</g>
</g>
<g id="Polygon" style="mix-blend-mode:normal;" figma:type="regular-polygon">
<mask id="mask2_outline_ins">
<use xlink:href="#path4_fill" fill="white" transform="matrix(-0.706939 0.707274 -0.706939 -0.707274 372 -77.5003)"/>
</mask>
<g mask="url(#mask2_outline_ins)">
<use xlink:href="#path5_stroke_2x" transform="matrix(-0.706939 0.707274 -0.706939 -0.707274 372 -77.5003)" fill="#DFBE6A" style="mix-blend-mode:normal;"/>
</g>
</g>
</g>
<defs>
<path id="path0_fill" d="M 0 0L 294.673 0L 294.673 294.673L 0 294.673L 0 0Z"/>
<path id="path1_stroke_2x" d="M 0 0L 0 -2L -2 -2L -2 0L 0 0ZM 294.673 0L 296.673 0L 296.673 -2L 294.673 -2L 294.673 0ZM 294.673 294.673L 294.673 296.673L 296.673 296.673L 296.673 294.673L 294.673 294.673ZM 0 294.673L -2 294.673L -2 296.673L 0 296.673L 0 294.673ZM 0 2L 294.673 2L 294.673 -2L 0 -2L 0 2ZM 292.673 0L 292.673 294.673L 296.673 294.673L 296.673 0L 292.673 0ZM 294.673 292.673L 0 292.673L 0 296.673L 294.673 296.673L 294.673 292.673ZM 2 294.673L 2 0L -2 0L -2 294.673L 2 294.673Z"/>
<path id="path2_fill" d="M 134.572 2.44531C 135.763 1.13455 137.823 1.13455 139.014 2.44531L 250.703 125.425C 252.453 127.352 251.086 130.442 248.482 130.442L 25.1039 130.442C 22.5002 130.442 21.1326 127.352 22.8831 125.425L 134.572 2.44531Z"/>
<path id="path3_stroke_2x" d="M 139.014 2.44531L 137.533 3.78993L 139.014 2.44531ZM 250.703 125.425L 249.222 126.77L 250.703 125.425ZM 134.572 2.44531L 136.053 3.78993L 134.572 2.44531ZM 22.8831 125.425L 21.4026 124.08L 22.8831 125.425ZM 137.533 3.78993L 249.222 126.77L 252.183 124.08L 140.494 1.1007L 137.533 3.78993ZM 248.482 128.442L 25.1039 128.442L 25.1039 132.442L 248.482 132.442L 248.482 128.442ZM 24.3636 126.77L 136.053 3.78993L 133.092 1.1007L 21.4026 124.08L 24.3636 126.77ZM 140.494 1.1007C 138.51 -1.08391 135.076 -1.08391 133.092 1.1007L 136.053 3.78993C 136.449 3.35301 137.136 3.35301 137.533 3.78993L 140.494 1.1007ZM 249.222 126.77C 249.806 127.412 249.35 128.442 248.482 128.442L 248.482 132.442C 252.821 132.442 255.101 127.293 252.183 124.08L 249.222 126.77ZM 25.1039 128.442C 24.236 128.442 23.7801 127.412 24.3636 126.77L 21.4026 124.08C 18.4851 127.293 20.7644 132.442 25.1039 132.442L 25.1039 128.442Z"/>
<path id="path4_fill" d="M 134.048 6.21962C 135.101 3.83452 138.485 3.83452 139.538 6.21962L 253.401 264.244C 254.276 266.228 252.824 268.456 250.656 268.456L 22.9298 268.456C 20.7622 268.456 19.31 266.228 20.1851 264.244L 134.048 6.21962Z"/>
<path id="path5_stroke_2x" d="M 139.538 6.21962L 137.708 7.02707L 139.538 6.21962ZM 253.401 264.244L 251.571 265.052L 253.401 264.244ZM 20.1851 264.244L 22.0149 265.052L 20.1851 264.244ZM 137.708 7.02707L 251.571 265.052L 255.231 263.437L 141.367 5.41217L 137.708 7.02707ZM 250.656 266.456L 22.9298 266.456L 22.9298 270.456L 250.656 270.456L 250.656 266.456ZM 22.0149 265.052L 135.878 7.02707L 132.219 5.41217L 18.3554 263.437L 22.0149 265.052ZM 141.367 5.41217C 139.613 1.437 133.973 1.437 132.219 5.41217L 135.878 7.02707C 136.229 6.23204 137.357 6.23204 137.708 7.02707L 141.367 5.41217ZM 251.571 265.052C 251.863 265.713 251.379 266.456 250.656 266.456L 250.656 270.456C 254.269 270.456 256.689 266.742 255.231 263.437L 251.571 265.052ZM 22.9298 266.456C 22.2072 266.456 21.7232 265.713 22.0149 265.052L 18.3554 263.437C 16.8969 266.742 19.3172 270.456 22.9298 270.456L 22.9298 266.456Z"/>
</defs>
</svg>
